<?xml version="1.0" encoding="utf-8"?>
<svg width="24px" height="24px" viewBox="0 0 24 24" version="1.1" xmlns:xlink="http://www.w3.org/1999/xlink" xmlns="http://www.w3.org/2000/svg">
  <defs>
    <path d="M24 0L24 0L24 24L0 24L0 0L24 0Z" id="path_1" />
    <clipPath id="clip_1">
      <use xlink:href="#path_1" />
    </clipPath>
  </defs>
  <g id="key-square" clip-path="url(#clip_1)">
    <path d="M24 0L24 0L24 24L0 24L0 0L24 0Z" id="key-square" fill="none" stroke="none" />
    <path d="M13.25 12C13.9404 12 14.5 11.4404 14.5 10.75C14.5 10.0596 13.9404 9.5 13.25 9.5C12.5596 9.5 12 10.0596 12 10.75C12 11.4404 12.5596 12 13.25 12L13.25 12Z" id="Shape" fill="#FFFFFF" stroke="none" />
    <path d="M16.19 2L7.81 2C4.17 2 2 4.17 2 7.81L2 16.18C2 19.83 4.17 22 7.81 22L16.18 22C19.82 22 21.99 19.83 21.99 16.19L21.99 7.81C22 4.17 19.83 2 16.19 2L16.19 2ZM15.89 13.47C14.86 14.49 13.39 14.81 12.09 14.4L11.03 15.45C10.94 15.54 10.78 15.54 10.68 15.45L9.71 14.48C9.57 14.34 9.33 14.34 9.18 14.48C9.03 14.62 9.04 14.86 9.18 15.01L10.15 15.98C10.25 16.08 10.25 16.24 10.15 16.33L9.74 16.74C9.57 16.92 9.24 17.03 9 17L7.91 16.85C7.55 16.8 7.22 16.46 7.16 16.1L7.01 15.01C6.97 14.77 7.09 14.44 7.25 14.27L9.6 11.92C9.2 10.62 9.51 9.15 10.54 8.12C12.01 6.65 14.41 6.65 15.89 8.12C17.37 9.59 17.37 11.99 15.89 13.47L15.89 13.47Z" id="Shape" fill="#FFFFFF" fill-rule="evenodd" stroke="none" />
  </g>
</svg>